# xmcd CD database file
#
# Track frame offsets:
#	150
#	17181
#	31938
#	51810
#	71604
#	89130
#	107461
#	127104
#	142179
#	160122
#	177060
#	193320
#	207230
#	224272
#
# Disc length: 3223 seconds
#
# Revision: 0
# Processed by: cddbd v1.5.1PL0 Copyright (c) Steve Scherf et al.
# Submitted via: CDex 1.51
#
DISCID=d20c950e
DTITLE=pachakamak - the sounds of silence
DYEAR=2004
DGENRE=New Age
TTITLE0=the sounds of silence
TTITLE1=dust in the wind
TTITLE2=what a wonderful world
TTITLE3=loneky shepherd
TTITLE4=unchaind melody
TTITLE5=il ritorno di ringo
TTITLE6=altiplano de chile
TTITLE7=noches de blanco saten
TTITLE8=can you feel the love
TTITLE9=let it be
TTITLE10=i do it for you
TTITLE11=hey hude
TTITLE12=scarborough fair
TTITLE13=imagine
EXTD=YEAR: 2004
EXTT0=
EXTT1=
EXTT2=
EXTT3=
EXTT4=
EXTT5=
EXTT6=
EXTT7=
EXTT8=
EXTT9=
EXTT10=
EXTT11=
EXTT12=
EXTT13=
PLAYORDER=
